<?xml version="1.0" encoding="utf-8"?>
<!-- Generator: Adobe Illustrator 18.1.1, SVG Export Plug-In . SVG Version: 6.00 Build 0)  -->
<!DOCTYPE svg PUBLIC "-//W3C//DTD SVG 1.1//EN" "http://www.w3.org/Graphics/SVG/1.1/DTD/svg11.dtd">
<svg version="1.1" id="Layer_1" xmlns="http://www.w3.org/2000/svg" xmlns:xlink="http://www.w3.org/1999/xlink" x="0px" y="0px"
	 viewBox="0 0 100 100" enable-background="new 0 0 100 100" xml:space="preserve">
<g>
	<path fill="#3CBEFF" d="M72.9,49.6c-12.9,11.3-23.3,0-23.3,0c-13.1,10.8-23,0-23,0c-6.5,6.7-14.5,4.3-18.1,2.6V64
		c8.4,6.2,18.3-2.4,18.3-2.4C37.4,71.4,50,61.3,50,61.3c10.9,10.6,22.7,0.2,22.7,0.2c5.9,5.7,14.8,5,18.8,4.3V51.4
		C82.5,58.4,72.9,49.6,72.9,49.6z"/>
	<path fill="#006390" d="M72.9,71.2c-12.9,11.3-23.3,0-23.3,0c-13.1,10.8-23,0-23,0c-6.5,6.7-14.5,4.3-18.1,2.6v17c0,2.8,2.2,5,5,5
		h72.9c2.8,0,5-2.2,5-5V73C82.5,80,72.9,71.2,72.9,71.2z"/>
</g>
</svg>
