<?xml version="1.0" encoding="utf-8"?>
<!-- Generator: Adobe Illustrator 18.1.1, SVG Export Plug-In . SVG Version: 6.00 Build 0)  -->
<!DOCTYPE svg PUBLIC "-//W3C//DTD SVG 1.1//EN" "http://www.w3.org/Graphics/SVG/1.1/DTD/svg11.dtd">
<svg version="1.1" id="Layer_1" xmlns="http://www.w3.org/2000/svg" xmlns:xlink="http://www.w3.org/1999/xlink" x="0px" y="0px"
	 viewBox="0 0 100 100" enable-background="new 0 0 100 100" xml:space="preserve">
<g id="Layer_1_1_">
</g>
<g id="Cloud">
	<path fill="#9B9B9B" d="M77.3,40C77.2,40,77.2,40,77.3,40c-0.7-10.9-9.8-19.5-20.9-19.5c-10.2,0-18.7,7.3-20.5,17
		c-0.2,0-0.5,0-0.7,0c-7.6,0-14,5.1-16.1,11.9c-0.3,0-0.7-0.1-1-0.1c-6,0-10.9,4.9-10.9,10.9S12,71.1,18,71.1c0.1,0,59.2,0,59.2,0
		c8.6,0,15.6-7,15.6-15.6S85.9,40,77.3,40z"/>
</g>
<g id="Cloud_1_">
	<path fill="#666666" d="M16.6,68.6c0,6.2,5.1,11.3,11.3,11.3c0,0,42.7,0,42.7,0c4.3,0,7.8-3.5,7.8-7.8c0-4.3-3.5-7.8-7.8-7.8
		c-0.2,0-0.5,0-0.7,0c-1.5-5-6.2-8.6-11.6-8.6c-0.2,0-0.4,0-0.5,0c-1.3-7-7.5-12.3-14.8-12.3c-8,0-14.5,6.3-15.1,14.1c0,0,0,0,0,0
		C21.6,57.4,16.6,62.4,16.6,68.6z"/>
</g>
</svg>
