<?xml version="1.0" encoding="utf-8"?>
<!-- Generator: Adobe Illustrator 18.1.1, SVG Export Plug-In . SVG Version: 6.00 Build 0)  -->
<!DOCTYPE svg PUBLIC "-//W3C//DTD SVG 1.1//EN" "http://www.w3.org/Graphics/SVG/1.1/DTD/svg11.dtd">
<svg version="1.1" xmlns="http://www.w3.org/2000/svg" xmlns:xlink="http://www.w3.org/1999/xlink" x="0px" y="0px"
	 viewBox="0 0 150 150" enable-background="new 0 0 150 150" xml:space="preserve">
<g id="Layer_1">
</g>
<g id="Cloud">
	<path fill="#666666" d="M115.9,62C115.8,62,115.8,62,115.9,62c-1.1-16.3-14.7-29.3-31.3-29.3c-15.3,0-28.1,11-30.8,25.5
		c-0.3,0-0.7,0-1.1,0c-11.4,0-21,7.6-24.2,17.9c-0.5,0-1-0.1-1.5-0.1c-9,0-16.3,7.3-16.3,16.3s7.3,16.3,16.3,16.3
		c0.1,0,88.8,0,88.8,0c12.9,0,23.4-10.5,23.4-23.4S128.8,62,115.9,62z"/>
</g>
</svg>
