<?xml version="1.0" encoding="utf-8"?>
<!-- Generator: Adobe Illustrator 18.1.1, SVG Export Plug-In . SVG Version: 6.00 Build 0)  -->
<!DOCTYPE svg PUBLIC "-//W3C//DTD SVG 1.1//EN" "http://www.w3.org/Graphics/SVG/1.1/DTD/svg11.dtd">
<svg version="1.1" xmlns="http://www.w3.org/2000/svg" xmlns:xlink="http://www.w3.org/1999/xlink" x="0px" y="0px"
	 viewBox="0 0 100 100" enable-background="new 0 0 100 100" xml:space="preserve">
<g id="Layer_1">
	<g id="Cloud_3_">
		<path fill="#9B9B9B" d="M5,41.2c0,6.7,5.4,12.1,12.1,12.1c0,0,45.7,0,45.8,0c4.6,0,8.4-3.8,8.4-8.4s-3.8-8.4-8.4-8.4
			c-0.3,0-0.5,0.1-0.8,0.1c-1.7-5.3-6.6-9.2-12.5-9.2c-0.2,0-0.4,0-0.6,0c-1.4-7.5-8-13.2-15.9-13.2c-8.6,0-15.6,6.7-16.1,15.1
			c0.1,0,0.1,0,0,0C10.4,29.2,5,34.5,5,41.2z"/>
	</g>
	<g id="Layer_1_1_">
	</g>
	<g id="Cloud">
		<path fill="#565656" d="M81.4,41.5C81.4,41.5,81.4,41.5,81.4,41.5C80.7,31.4,72.3,23.4,62,23.4c-9.5,0-17.4,6.8-19.1,15.8
			c-0.2,0-0.4,0-0.7,0c-7.1,0-13,4.7-15,11.1c-0.3,0-0.6-0.1-0.9-0.1c-5.6,0-10.1,4.5-10.1,10.1s4.5,10.1,10.1,10.1c0.1,0,55,0,55,0
			c8,0,14.5-6.5,14.5-14.5S89.4,41.5,81.4,41.5z"/>
	</g>
</g>
<g id="Rain_Cloud">
	<path fill="#65BBCE" d="M41.2,80.8c-1.1,0-2,0.9-2,2v3.9c0,1.1,0.9,2,2,2c1.1,0,2-0.9,2-2v-3.9C43.1,81.7,42.3,80.8,41.2,80.8z"/>
	<path fill="#65BBCE" d="M25.4,80.8c-1.1,0-2,0.9-2,2v3.9c0,1.1,0.9,2,2,2c1.1,0,2-0.9,2-2v-3.9C27.4,81.7,26.5,80.8,25.4,80.8z"/>
	<path fill="#65BBCE" d="M49,76.9c-1.1,0-2,0.9-2,2v3.9c0,1.1,0.9,2,2,2c1.1,0,2-0.9,2-2v-3.9C51,77.8,50.1,76.9,49,76.9z"/>
	<path fill="#65BBCE" d="M33.3,76.9c-1.1,0-2,0.9-2,2v3.9c0,1.1,0.9,2,2,2c1.1,0,2-0.9,2-2v-3.9C35.2,77.8,34.4,76.9,33.3,76.9z"/>
	<path fill="#65BBCE" d="M17.5,76.9c-1.1,0-2,0.9-2,2v3.9c0,1.1,0.9,2,2,2c1.1,0,2-0.9,2-2v-3.9C19.5,77.8,18.6,76.9,17.5,76.9z"/>
	<path fill="#65BBCE" d="M72.7,80.8c-1.1,0-2,0.9-2,2v3.9c0,1.1,0.9,2,2,2c1.1,0,2-0.9,2-2v-3.9C74.7,81.7,73.8,80.8,72.7,80.8z"/>
	<path fill="#65BBCE" d="M56.9,80.8c-1.1,0-2,0.9-2,2v3.9c0,1.1,0.9,2,2,2c1.1,0,2-0.9,2-2v-3.9C58.9,81.7,58,80.8,56.9,80.8z"/>
	<path fill="#65BBCE" d="M80.6,76.9c-1.1,0-2,0.9-2,2v3.9c0,1.1,0.9,2,2,2c1.1,0,2-0.9,2-2v-3.9C82.6,77.8,81.7,76.9,80.6,76.9z"/>
	<path fill="#65BBCE" d="M64.8,76.9c-1.1,0-2,0.9-2,2v3.9c0,1.1,0.9,2,2,2c1.1,0,2-0.9,2-2v-3.9C66.8,77.8,65.9,76.9,64.8,76.9z"/>
	<path fill="#65BBCE" d="M49,76.9c-1.1,0-2,0.9-2,2v3.9c0,1.1,0.9,2,2,2c1.1,0,2-0.9,2-2v-3.9C51,77.8,50.1,76.9,49,76.9z"/>
</g>
</svg>
