<?xml version="1.0" encoding="utf-8"?>
<!-- Generator: Adobe Illustrator 18.1.1, SVG Export Plug-In . SVG Version: 6.00 Build 0)  -->
<!DOCTYPE svg PUBLIC "-//W3C//DTD SVG 1.1//EN" "http://www.w3.org/Graphics/SVG/1.1/DTD/svg11.dtd">
<svg version="1.1" id="Layer_1" xmlns="http://www.w3.org/2000/svg" xmlns:xlink="http://www.w3.org/1999/xlink" x="0px" y="0px"
	 viewBox="0 0 100 100" enable-background="new 0 0 100 100" xml:space="preserve">
<g id="Cloud_3_">
	<path fill="#9B9B9B" d="M6.3,40.1c0,6.5,5.3,11.8,11.8,11.8c0,0,44.8,0,44.9,0c4.5,0,8.2-3.7,8.2-8.2s-3.7-8.2-8.2-8.2
		c-0.3,0-0.5,0.1-0.8,0.1c-1.6-5.2-6.5-9-12.2-9c-0.2,0-0.4,0-0.6,0c-1.4-7.3-7.8-12.9-15.6-12.9c-8.4,0-15.3,6.6-15.8,14.8
		c0.1,0,0.1,0,0,0C11.6,28.4,6.3,33.6,6.3,40.1z"/>
</g>
<g id="Cloud">
	<path fill="#6D6D6D" d="M81.2,40.5L81.2,40.5c-0.7-9.9-8.9-17.8-19-17.8c-9.3,0-17,6.7-18.7,15.5c-0.2,0-0.4,0-0.7,0
		c-6.9,0-12.7,4.6-14.7,10.9c-0.3,0-0.6-0.1-0.9-0.1c-5.5,0-9.9,4.4-9.9,9.9s4.4,9.9,9.9,9.9c0.1,0,53.8,0,53.8,0
		c7.8,0,14.2-6.4,14.2-14.2S89,40.5,81.2,40.5z"/>
</g>
<g id="Cloud_2_">
	<path fill="#565656" d="M4.8,68.3c0,8.2,6.7,14.9,14.9,14.9h56.6c5.7,0,10.4-4.7,10.4-10.4S82,62.4,76.3,62.4c-0.3,0-0.6,0.1-1,0.1
		c-2-6.6-8.2-11.4-15.4-11.4c-0.3,0-0.5,0-0.7,0c-1.7-9.2-9.9-16.3-19.6-16.3c-10.6,0-19.3,8.3-20,18.7c0.1,0,0.1,0,0,0
		C11.4,53.5,4.8,60,4.8,68.3z"/>
</g>
</svg>
