<?xml version="1.0" encoding="utf-8"?>
<!-- Generator: Adobe Illustrator 18.1.1, SVG Export Plug-In . SVG Version: 6.00 Build 0)  -->
<!DOCTYPE svg PUBLIC "-//W3C//DTD SVG 1.1//EN" "http://www.w3.org/Graphics/SVG/1.1/DTD/svg11.dtd">
<svg version="1.1" id="Layer_1" xmlns="http://www.w3.org/2000/svg" xmlns:xlink="http://www.w3.org/1999/xlink" x="0px" y="0px"
	 viewBox="0 0 100 100" enable-background="new 0 0 100 100" xml:space="preserve">
<path fill="#F7C90B" d="M88.5,49.6l7.4-5.9l-8-5.1l4.8-8.1l-9.2-1.9l1.6-9.3L75.7,21l-1.9-9.2l-9,5l-6.1-8.2l-5.4,7.7L45.5,11
	l-2.4,9.1L33.9,18l1.1,9.4l-9.4,1.4l4.3,8.3l-8.2,4.7l7.1,6.2l-6,7.2l8.8,3.3l-3,8.9l9.4-0.1l0.4,9.4l8.8-3.5l3.7,8.6l7.1-6.2
	l6.6,6.8l4.2-8.5l8.6,3.9l0.9-9.4l9.4,0.6l-2.5-9.1l9-2.8L88.5,49.6z M35.8,45.5c0-12.7,10.3-23,23-23s23,10.3,23,23s-10.3,23-23,23
	S35.8,58.1,35.8,45.5z"/>
<g id="Cloud_1_">
	<path fill="#9B9B9B" d="M5.3,76.8c0,6,4.9,11,11,11c0,0,41.6,0,41.6,0c4.2,0,7.6-3.4,7.6-7.6s-3.4-7.6-7.6-7.6c-0.2,0-0.5,0-0.7,0
		c-1.5-4.8-6-8.4-11.3-8.4c-0.2,0-0.4,0-0.5,0c-1.3-6.8-7.3-12-14.4-12c-7.8,0-14.2,6.1-14.7,13.7c0,0,0,0,0,0
		C10.1,65.9,5.3,70.8,5.3,76.8z"/>
</g>
</svg>
