<?xml version="1.0" encoding="utf-8"?>
<!-- Generator: Adobe Illustrator 18.1.1, SVG Export Plug-In . SVG Version: 6.00 Build 0)  -->
<!DOCTYPE svg PUBLIC "-//W3C//DTD SVG 1.1//EN" "http://www.w3.org/Graphics/SVG/1.1/DTD/svg11.dtd">
<svg version="1.1" xmlns="http://www.w3.org/2000/svg" xmlns:xlink="http://www.w3.org/1999/xlink" x="0px" y="0px"
	 viewBox="0 0 100 100" enable-background="new 0 0 100 100" xml:space="preserve">
<g id="Layer_1">
	<g id="Cloud_3_">
		<path fill="#6D6D6D" d="M5,36.7c0,6.7,5.4,12.1,12.1,12.1c0,0,45.7,0,45.8,0c4.6,0,8.4-3.8,8.4-8.4S67.5,32,62.9,32
			c-0.3,0-0.5,0.1-0.8,0.1c-1.7-5.3-6.6-9.2-12.5-9.2c-0.2,0-0.4,0-0.6,0c-1.4-7.5-8-13.2-15.9-13.2c-8.6,0-15.6,6.7-16.1,15.1
			c0.1,0,0.1,0,0,0C10.4,24.7,5,30.1,5,36.7z"/>
	</g>
	<g id="Layer_1_1_">
	</g>
	<g id="Cloud">
		<path fill="#565656" d="M81.4,37C81.4,37,81.4,37,81.4,37C80.7,26.9,72.3,18.9,62,18.9c-9.5,0-17.4,6.8-19.1,15.8
			c-0.2,0-0.4,0-0.7,0c-7.1,0-13,4.7-15,11.1c-0.3,0-0.6-0.1-0.9-0.1c-5.6,0-10.1,4.5-10.1,10.1s4.5,10.1,10.1,10.1c0.1,0,55,0,55,0
			c8,0,14.5-6.5,14.5-14.5S89.4,37,81.4,37z"/>
	</g>
</g>
<g id="Rain_Cloud">
	<path fill="#65BBCE" d="M41.7,76c-1.1-0.1-2,0.7-2.1,1.8l-1.1,11.7c-0.1,1.1,0.7,2.1,1.8,2.2c1.1,0.1,2-0.7,2.1-1.8l1.1-11.7
		C43.6,77.1,42.8,76.1,41.7,76z"/>
	<path fill="#65BBCE" d="M26,76c-1.1-0.1-2,0.7-2.1,1.8l-1.1,11.7c-0.1,1.1,0.7,2.1,1.8,2.2c1.1,0.1,2-0.7,2.1-1.8l1.1-11.7
		C27.9,77.1,27.1,76.1,26,76z"/>
	<path fill="#65BBCE" d="M34.2,72.1c-1.1-0.1-2,0.7-2.1,1.8L31,85.6c-0.1,1.1,0.7,2.1,1.8,2.2c1.1,0.1,2-0.7,2.1-1.8L36,74.2
		C36.1,73.1,35.3,72.2,34.2,72.1z"/>
	<path fill="#65BBCE" d="M18.5,72c-1.1-0.1-2,0.7-2.1,1.8l-1.1,11.7c-0.1,1.1,0.7,2.1,1.8,2.2c1.1,0.1,2-0.7,2.1-1.8l1.1-11.7
		C20.4,73.1,19.6,72.1,18.5,72z"/>
	<path fill="#65BBCE" d="M73.2,76c-1.1-0.1-2,0.7-2.1,1.8l-1.1,11.7c-0.1,1.1,0.7,2.1,1.8,2.2c1.1,0.1,2-0.7,2.1-1.8l1.1-11.7
		C75,77.1,74.2,76.1,73.2,76z"/>
	<path fill="#65BBCE" d="M57.4,76c-1.1-0.1-2,0.7-2.1,1.8l-1.1,11.7c-0.1,1.1,0.7,2.1,1.8,2.2c1.1,0.1,2-0.7,2.1-1.8l1.1-11.7
		C59.3,77.1,58.5,76.1,57.4,76z"/>
	<path fill="#65BBCE" d="M81.4,72.1c-1.1-0.1-2,0.7-2.1,1.8l-1.1,11.7c-0.1,1.1,0.7,2.1,1.8,2.2c1.1,0.1,2-0.7,2.1-1.8l1.1-11.7
		C83.2,73.1,82.5,72.2,81.4,72.1z"/>
	<path fill="#65BBCE" d="M65.7,72.1c-1.1-0.1-2,0.7-2.1,1.8l-1.1,11.7c-0.1,1.1,0.7,2.1,1.8,2.2c1.1,0.1,2-0.7,2.1-1.8l1.1-11.7
		C67.5,73.1,66.7,72.2,65.7,72.1z"/>
	<path fill="#65BBCE" d="M49.9,72.1c-1.1-0.1-2,0.7-2.1,1.8l-1.1,11.7c-0.1,1.1,0.7,2.1,1.8,2.2c1.1,0.1,2-0.7,2.1-1.8l1.1-11.7
		C51.8,73.1,51,72.2,49.9,72.1z"/>
</g>
</svg>
