<?xml version="1.0" encoding="utf-8"?>
<!-- Generator: Adobe Illustrator 18.1.1, SVG Export Plug-In . SVG Version: 6.00 Build 0)  -->
<!DOCTYPE svg PUBLIC "-//W3C//DTD SVG 1.1//EN" "http://www.w3.org/Graphics/SVG/1.1/DTD/svg11.dtd">
<svg version="1.1" id="Layer_1" xmlns="http://www.w3.org/2000/svg" xmlns:xlink="http://www.w3.org/1999/xlink" x="0px" y="0px"
	 viewBox="0 0 100 100" enable-background="new 0 0 100 100" xml:space="preserve">
<path fill="#F7C90B" d="M82.8,54.6l8.1-6.5l-8.8-5.6l5.3-8.9l-10.2-2.1L79,21.3L68.7,23l-2.1-10.2l-9.9,5.5L50,9.2l-6,8.5l-8.7-5.7
	L32.7,22l-10.1-2.3l1.2,10.3l-10.4,1.5l4.8,9.2l-9.1,5.1l7.8,6.9l-6.7,8l9.7,3.6l-3.3,9.9L27,74.1l0.5,10.4l9.7-3.9l4.1,9.5l7.8-6.9
	l7.3,7.5l4.6-9.3l9.5,4.3l1-10.3l10.4,0.7l-2.8-10L89,63L82.8,54.6z M24.6,50C24.6,36,36,24.6,50,24.6S75.4,36,75.4,50
	S64,75.4,50,75.4S24.6,64,24.6,50z"/>
</svg>
