<?xml version="1.0" encoding="utf-8"?>
<!-- Generator: Adobe Illustrator 18.1.1, SVG Export Plug-In . SVG Version: 6.00 Build 0)  -->
<!DOCTYPE svg PUBLIC "-//W3C//DTD SVG 1.1//EN" "http://www.w3.org/Graphics/SVG/1.1/DTD/svg11.dtd">
<svg version="1.1" id="Layer_1" xmlns="http://www.w3.org/2000/svg" xmlns:xlink="http://www.w3.org/1999/xlink" x="0px" y="0px"
	 viewBox="0 0 150 150" enable-background="new 0 0 150 150" xml:space="preserve">
<path fill="#F7C90B" d="M124.1,81.9l12.2-9.7l-13.2-8.4l8-13.4l-15.3-3.1l2.6-15.4L103,34.5l-3.1-15.3L85,27.4L74.9,13.8l-9,12.7
	l-13-8.6l-3.9,15.1l-15.2-3.4l1.8,15.5L20,47.4l7.2,13.8l-13.6,7.7l11.7,10.3l-10,12l14.6,5.4l-5,14.8l15.6-0.2l0.7,15.6l14.5-5.8
	l6.2,14.3L73.6,125l10.9,11.2l6.9-14l14.2,6.5l1.5-15.5l15.6,1l-4.2-15l14.9-4.7L124.1,81.9z M36.9,75C36.9,54,54,36.9,75,36.9
	S113.1,54,113.1,75S96,113.1,75,113.1S36.9,96,36.9,75z"/>
</svg>
