<?xml version="1.0" encoding="utf-8"?>
<!-- Generator: Adobe Illustrator 18.1.1, SVG Export Plug-In . SVG Version: 6.00 Build 0)  -->
<!DOCTYPE svg PUBLIC "-//W3C//DTD SVG 1.1//EN" "http://www.w3.org/Graphics/SVG/1.1/DTD/svg11.dtd">
<svg version="1.1" id="Layer_1" xmlns="http://www.w3.org/2000/svg" xmlns:xlink="http://www.w3.org/1999/xlink" x="0px" y="0px"
	 viewBox="0 0 100 100" enable-background="new 0 0 100 100" xml:space="preserve">
<path fill="#333333" d="M18.5,91.1c-0.2,0-0.3-0.1-0.3-0.3V31.7c-1.5-0.6-2.5-2-2.5-3.7c0-2.2,1.8-3.9,3.9-3.9s3.9,1.8,3.9,3.9
	c0,1.6-1,3.1-2.5,3.7v59.1c0,0.2-0.1,0.3-0.3,0.3H18.5z"/>
<path fill="#333333" d="M73.1,24.4c-1.3-0.9-11.3-2.1-16.2-2s-3.7,1-9.9-1.5c-6.1-2.5-13-2.1-13.7-2.1c-0.7,0-1.2,1-1.2,1l-5.9,4.8
	l0.4,0.5l5.4-2.6c2.4,4.7,0.4,8.9,0.4,8.9l-6.4-1.6l-0.4,0.5c0,0,7.1,3.5,8.7,4.2c1.6,0.8,3.3-0.1,7-1.2c3.7-1.2,6.9,1,11.1,0.2
	s10.3-3.2,12.2-3.6c1.9-0.4,8-0.3,8.4-1.1C73.4,28.2,73.1,24.4,73.1,24.4z M43,31.4c-0.9-0.1-3.6,0.4-3.6,0.4
	c1.7-5.6-1.5-11.1-1.5-11.1s3.5-0.6,4.7,0.7C43.8,22.8,43.9,31.5,43,31.4z M50.2,32.3c-0.7-0.2-2.9-0.4-2.9-0.4c1.5-5.1,0-9.4,0-9.4
	S50,23.2,51,24C51.5,24.4,50.9,32.5,50.2,32.3z M57.7,30.9c-0.2,0.6-2.9,0.7-2.9,0.7c-0.1-4.5-0.2-7.4-0.2-7.4s1.6-0.4,2.5,0
	C57.6,24.3,57.9,30.3,57.7,30.9z M63.7,29.2c-0.1,0.4-2.4,0.6-2.4,0.6c-0.1-3.4-0.1-5.7-0.1-5.7s1.3-0.4,2.1,0
	C63.6,24.1,63.8,28.7,63.7,29.2z M69.2,28.5c0,0-1.6,0.3-2.4,0.1c-0.4-0.1-0.1-3.6,0-4c0.1-0.4,2.3,0,2.3,0
	C69.3,27.5,69.2,28.5,69.2,28.5z"/>
</svg>
