<?xml version="1.0" encoding="utf-8"?>
<!-- Generator: Adobe Illustrator 18.1.1, SVG Export Plug-In . SVG Version: 6.00 Build 0)  -->
<!DOCTYPE svg PUBLIC "-//W3C//DTD SVG 1.1//EN" "http://www.w3.org/Graphics/SVG/1.1/DTD/svg11.dtd">
<svg version="1.1" id="Layer_1" xmlns="http://www.w3.org/2000/svg" xmlns:xlink="http://www.w3.org/1999/xlink" x="0px" y="0px"
	 viewBox="0 0 100 100" enable-background="new 0 0 100 100" xml:space="preserve">
<path fill="#333333" d="M18.5,91.1c-0.2,0-0.3-0.1-0.3-0.3V31.7c-1.5-0.6-2.5-2-2.5-3.7c0-2.2,1.8-3.9,3.9-3.9s3.9,1.8,3.9,3.9
	c0,1.6-1,3.1-2.5,3.7v59.1c0,0.2-0.1,0.3-0.3,0.3H18.5z"/>
<path fill="#333333" d="M85.4,20.6c-1.7-1.1-14.3-2.3-20.4-2s-4.7,1.4-12.5-1.5c-7.8-2.9-16.4-2.3-17.4-2.3s-1.5,1.3-1.5,1.3
	l-7.3,6.3l0.5,0.7l6.7-3.5c3.2,5.8,0.8,11.2,0.8,11.2L26,29l-0.5,0.7c0,0,9.1,4.1,11.2,5.1c2.1,0.9,4.2-0.2,8.8-1.8
	s8.7,1.1,14.1-0.1s12.9-4.4,15.2-4.9s10.1-0.7,10.6-1.7S85.4,20.6,85.4,20.6z M47.7,30.3c-1.2-0.1-4.5,0.6-4.5,0.6
	c2-7.2-2.3-13.9-2.3-13.9s4.4-0.9,5.9,0.8C48.4,19.4,48.8,30.4,47.7,30.3z M56.8,31.3c-0.9-0.2-3.7-0.4-3.7-0.4
	c1.7-6.5-0.3-11.8-0.3-11.8s3.5,0.7,4.8,1.7C58.2,21.3,57.7,31.5,56.8,31.3z M66.2,29.2c-0.2,0.7-3.6,1-3.6,1
	c-0.3-5.6-0.5-9.4-0.5-9.4s2-0.6,3.2-0.1C65.9,21,66.4,28.5,66.2,29.2z M73.6,26.8c-0.2,0.5-3,0.8-3,0.8c-0.2-4.3-0.3-7.2-0.3-7.2
	S72,20,73,20.3C73.5,20.5,73.8,26.3,73.6,26.8z M80.6,25.8c0,0-2,0.4-3,0.2c-0.5-0.1-0.3-4.5-0.1-5c0.1-0.5,2.9-0.1,2.9-0.1
	C80.7,24.6,80.6,25.8,80.6,25.8z"/>
</svg>
