<?xml version="1.0" encoding="utf-8"?>
<!-- Generator: Adobe Illustrator 18.1.1, SVG Export Plug-In . SVG Version: 6.00 Build 0)  -->
<!DOCTYPE svg PUBLIC "-//W3C//DTD SVG 1.1//EN" "http://www.w3.org/Graphics/SVG/1.1/DTD/svg11.dtd">
<svg version="1.1" id="Layer_1" xmlns="http://www.w3.org/2000/svg" xmlns:xlink="http://www.w3.org/1999/xlink" x="0px" y="0px"
	 viewBox="50 0 100 100" enable-background="new 50 0 100 100" xml:space="preserve">
<path fill="#525656" d="M68.5,91.1c-0.2,0-0.3-0.1-0.3-0.3V31.7c-1.5-0.6-2.5-2-2.5-3.7c0-2.2,1.8-3.9,3.9-3.9s3.9,1.8,3.9,3.9
	c0,1.6-1,3.1-2.5,3.7v59.1c0,0.2-0.1,0.3-0.3,0.3C70.7,91.1,68.5,91.1,68.5,91.1z"/>
<path fill="#525656" d="M123.2,30.3c-1.2-1-11-3.4-15.9-3.9c-4.9-0.5-3.8,0.6-9.7-2.6c-5.8-3.2-12.7-3.6-13.4-3.7S83,20.9,83,20.9
	L76.6,25l0.3,0.5l5.7-2c1.8,4.9-0.6,8.9-0.6,8.9l-6.2-2.3l-0.5,0.5c0,0,6.6,4.3,8.2,5.2c1.5,1,3.3,0.3,7.1-0.4
	c3.8-0.8,6.7,1.8,11,1.5s10.6-2,12.5-2.2c1.9-0.2,8,0.6,8.5-0.1C123.1,34.1,123.2,30.3,123.2,30.3z M92.5,33.7c-0.9-0.2-3.6,0-3.6,0
	c2.3-5.4-0.2-11.2-0.2-11.2s3.5-0.2,4.6,1.2C94.3,25.2,93.4,33.9,92.5,33.7z M99.6,35.4c-0.7-0.3-2.8-0.7-2.8-0.7
	c2.1-4.9,1.1-9.3,1.1-9.3s2.6,1,3.5,1.9C101.8,27.7,100.2,35.7,99.6,35.4z M107.2,34.9c-0.3,0.6-3,0.4-3,0.4
	c0.4-4.5,0.7-7.4,0.7-7.4s1.6-0.2,2.5,0.3C107.8,28.3,107.4,34.3,107.2,34.9z M113.3,33.9c-0.1,0.4-2.5,0.3-2.5,0.3
	c0.3-3.4,0.6-5.7,0.6-5.7s1.3-0.2,2.1,0.2C113.8,28.8,113.5,33.4,113.3,33.9z M118.9,33.9c0,0-1.6,0.1-2.4-0.2
	c-0.4-0.1,0.3-3.6,0.5-4c0.1-0.4,2.3,0.3,2.3,0.3C119.1,32.9,118.9,33.9,118.9,33.9z"/>
</svg>
